<?xml version="1.0" encoding="iso-8859-1"?>
<!-- Generator: Adobe Illustrator 19.0.0, SVG Export Plug-In . SVG Version: 6.00 Build 0)  -->
<svg version="1.1" id="Layer_1" xmlns="http://www.w3.org/2000/svg" xmlns:xlink="http://www.w3.org/1999/xlink" x="0px" y="0px"
	 viewBox="0 0 511.986 511.986" style="enable-background:new 0 0 511.986 511.986;" xml:space="preserve">
<path style="fill:#FC6E51;" d="M178.667,114.341c0,46.201-37.46,83.653-83.669,83.653c-46.202,0-83.662-37.452-83.662-83.653
	c0-46.218,37.46-83.67,83.662-83.67C141.207,30.671,178.667,68.123,178.667,114.341z"/>
<path style="fill:#ED5564;" d="M134.661,159.339l23.335,57.327l16.663,8l47.335-2l25.999,62.67l48.655,43.327h29.344l31.998-20
	l24-37.998l12.656-45.327c0,0,44.686-3.328,46.686-4.672s26-10.656,26-10.656l16.656-50.671H134.661z"/>
<rect x="126.993" y="116.993" style="fill:#F5F7FA;" width="362.49" height="37.999"/>
<path d="M191.401,106.653c-5.305-47.999-45.991-85.311-95.403-85.311C42.976,21.342,0,64.31,0,117.34
	c0,52.998,42.976,95.997,95.998,95.997c14.101,0,27.491-3.062,39.554-8.531c10.89,17.281,25.71,29.843,45.779,29.843
	c10.062,0,21.984,0,35.124,0c6.664,34.312,26.508,98.654,82.193,105.998v128.684h-63.99l0,0l0,0
	c-5.891,0-10.664,4.781-10.664,10.656c0,5.906,4.773,10.656,10.664,10.656l0,0l0,0H383.99c5.891,0,10.656-4.75,10.656-10.656
	c0-5.875-4.766-10.656-10.656-10.656h-63.998V340.647c55.686-7.344,75.529-71.686,82.201-105.998c13.765,0,25.765,0,35.139,0
	c53.312,0,74.654-127.996,74.654-127.996L191.401,106.653L191.401,106.653z M36.194,72.623l34.054,34.03H22.086
	C23.851,94.278,28.679,82.622,36.194,72.623z M22.086,127.996h48.162l-34.054,34.062C28.679,152.027,23.851,140.402,22.086,127.996z
	 M85.334,191.245c-12.398-1.781-24.046-6.594-34.054-14.125l34.054-34.03V191.245z M85.334,91.591L51.28,57.529
	c10.008-7.531,21.655-12.343,34.054-14.124V91.591z M135.927,149.34c-1.992-7.625-3.531-14.938-4.703-21.344h354.295
	c-1.624,6.469-3.655,13.75-6.062,21.344H135.927z M169.91,106.653h-48.163l34.054-34.03
	C163.316,82.622,168.144,94.278,169.91,106.653z M106.661,43.405c12.398,1.781,24.047,6.593,34.054,14.124l-34.054,34.062V43.405z
	 M106.661,191.245V143.09l7.594,7.594c2.789,11.343,6.531,23.593,11.484,35.155C119.677,188.464,113.278,190.307,106.661,191.245z
	 M369.615,269.993c-6.5,15.468-14.437,27.53-23.64,35.904c-10.437,9.469-22.421,14.094-36.64,14.094
	c-14.234,0-26.218-4.625-36.655-14.094c-9.194-8.374-17.148-20.437-23.641-35.904c-5.21-12.438-8.616-25.031-10.804-35.344h142.176
	C378.224,244.962,374.818,257.556,369.615,269.993z M454.644,201.588c-6.219,7.781-12.031,11.75-17.312,11.75h-31.998H213.33
	h-31.999c-5.117,0-12.983-1.281-22.124-12.156c-6.164-7.312-11.727-17.593-16.586-30.53h329.117
	C466.332,183.682,460.613,194.088,454.644,201.588z"/>
<g>
</g>
<g>
</g>
<g>
</g>
<g>
</g>
<g>
</g>
<g>
</g>
<g>
</g>
<g>
</g>
<g>
</g>
<g>
</g>
<g>
</g>
<g>
</g>
<g>
</g>
<g>
</g>
<g>
</g>
</svg>
