<?xml version="1.0" encoding="iso-8859-1"?>
<!-- Generator: Adobe Illustrator 19.0.0, SVG Export Plug-In . SVG Version: 6.00 Build 0)  -->
<svg version="1.1" id="Layer_1" xmlns="http://www.w3.org/2000/svg" xmlns:xlink="http://www.w3.org/1999/xlink" x="0px" y="0px"
	 viewBox="0 0 512 512" style="enable-background:new 0 0 512 512;" xml:space="preserve">
<path style="fill:#E4EAF5;" d="M100.751,112.134l41.742,322.958c4.163,32.216,31.598,56.331,64.081,56.331h190.412
	c32.483,0,59.917-24.116,64.081-56.331l41.742-322.958C502.808,112.134,100.751,112.134,100.751,112.134z"/>
<path style="fill:#9BDC6E;" d="M206.574,454.656c-13.956,0-25.828-10.438-27.617-24.279l-36.381-281.476h318.406l-36.38,281.477
	c-1.788,13.84-13.66,24.279-27.616,24.279H206.574V454.656z"/>
<path style="fill:#F0F26D;" d="M287.23,197.629c29.672-29.672,77.78-29.672,107.451,0c29.672,29.672,29.672,77.78,0,107.451
	L287.23,197.629z"/>
<path style="fill:#FEFFCC;" d="M305.197,215.596c19.717-19.717,51.8-19.717,71.519,0s19.717,51.8,0,71.517L305.197,215.596z"/>
<path style="opacity:0.2;fill:#171D26;enable-background:new    ;" d="M240.539,435.092l-41.742-322.958h-98.046l41.742,322.958
	c4.163,32.216,31.598,56.331,64.081,56.331h98.046C272.136,491.424,244.703,467.308,240.539,435.092z"/>
<circle style="fill:#F0F26D;" cx="100.755" cy="112.14" r="91.563"/>
<path style="fill:#FEFFCC;" d="M100.75,176.421c-35.447,0-64.286-28.838-64.286-64.286s28.838-64.286,64.286-64.286
	s64.288,28.838,64.288,64.286S136.199,176.421,100.75,176.421z"/>
<path style="fill:#F0F26D;" d="M364.136,345.827c0,41.963-34.017,75.98-75.98,75.98s-75.98-34.017-75.98-75.98H364.136z"/>
<path style="fill:#FEFFCC;" d="M338.728,345.827c0,27.884-22.687,50.571-50.571,50.571s-50.571-22.685-50.571-50.571H338.728z"/>
<path style="fill:#4C8C59;" d="M183.058,203.277c-9.513,24.405-3.019,55.995,18.819,79.824s52.743,33.049,77.883,25.695
	c9.513-24.405,3.019-55.995-18.819-79.824S208.199,195.924,183.058,203.277z"/>
<path d="M364.136,336.637h-25.409H237.586h-25.409c-5.076,0-9.192,4.114-9.192,9.192c0,46.963,38.207,85.172,85.172,85.172
	s85.173-38.209,85.173-85.172C373.328,340.751,369.213,336.637,364.136,336.637z M328.506,355.02
	c-4.191,18.407-20.691,32.186-40.35,32.186s-36.158-13.779-40.35-32.186H328.506z M288.157,412.616
	c-33.71,0-61.666-25.102-66.158-57.596h7.103c4.435,28.604,29.226,50.57,59.054,50.57c29.828,0,54.62-21.965,59.055-50.57h7.103
	C349.823,387.513,321.866,412.616,288.157,412.616z"/>
<path d="M370.217,293.615l17.966,17.966c1.723,1.723,4.062,2.691,6.499,2.691s4.776-0.968,6.499-2.693
	c33.208-33.208,33.208-87.243,0-120.451c-16.087-16.086-37.476-24.945-60.226-24.945s-44.138,8.86-60.225,24.945
	c-1.724,1.724-2.693,4.062-2.693,6.5s0.968,4.775,2.693,6.5l17.962,17.962c0.001,0.001,0.002,0.004,0.005,0.005L370.217,293.615
	L370.217,293.615z M300.671,198.069c11.539-8.759,25.548-13.502,40.286-13.502c17.84,0,34.612,6.947,47.226,19.56
	c23.836,23.836,25.854,61.356,6.053,87.508l-5.022-5.022c7.45-10.162,11.481-22.394,11.48-35.257
	c0-15.978-6.208-30.986-17.48-42.259c-11.273-11.272-26.28-17.479-42.258-17.479c-12.864,0-25.095,4.03-35.257,11.48
	L300.671,198.069z M340.956,210.001c11.068,0,21.459,4.296,29.259,12.095c7.8,7.8,12.096,18.191,12.096,29.259
	c0,7.927-2.204,15.506-6.319,22.035l-57.07-57.072C325.45,212.204,333.03,210.001,340.956,210.001z"/>
<path d="M502.808,102.942H201.063c-4.661-51.259-47.859-91.558-100.312-91.558C45.197,11.384,0,56.581,0,112.134
	c0,55.554,45.197,100.751,100.751,100.751c1.255,0,2.498-0.049,3.74-0.094l28.884,223.479c4.741,36.684,36.208,64.345,73.196,64.345
	h190.412c36.988,0,68.456-27.661,73.196-64.345l41.743-322.958c0.338-2.622-0.467-5.261-2.212-7.247
	C507.967,104.081,505.451,102.942,502.808,102.942z M119.172,192.36c-4.092,0.953-8.262,1.596-12.469,1.913
	c-1.981,0.15-3.966,0.228-5.951,0.228c-45.417,0-82.367-36.95-82.367-82.367s36.95-82.366,82.367-82.366
	s82.367,36.949,82.367,82.366c0,14.398-3.862,28.734-11.085,41.187c-6.52,11.241-15.689,20.834-26.597,27.89
	C137.384,186.419,128.475,190.192,119.172,192.36z M451.95,433.915c-3.56,27.545-27.191,48.317-54.965,48.317H206.574
	c-27.775,0-51.404-20.772-54.965-48.317L122.727,210.45c0.196-0.044,0.387-0.098,0.582-0.142c5.888-1.353,11.663-3.226,17.21-5.618
	l29.323,226.868c2.379,18.409,18.17,32.293,36.733,32.293h131.799c5.076,0,9.192-4.114,9.192-9.192s-4.115-9.192-9.192-9.192
	H206.575c-9.349,0-17.303-6.992-18.501-16.265l-30.25-234.034c13.822-9.496,24.948-22.152,32.587-37.074h45.013
	c5.076,0,9.192-4.114,9.192-9.192c0-5.078-4.115-9.192-9.192-9.192h-37.789c0.408,0,1.71-6.884,1.851-7.574
	c0.669-3.291,1.539-6.911,1.539-10.285c0.017-0.175,0.043-0.349,0.059-0.525h291.268L451.95,433.915z"/>
<path d="M174.229,112.134c0-40.516-32.963-73.477-73.48-73.477s-73.478,32.962-73.478,73.477s32.962,73.478,73.478,73.478
	C141.267,185.612,174.229,152.651,174.229,112.134z M55.864,80.247l22.694,22.695h-32.12C47.847,94.592,51.14,86.88,55.864,80.247z
	 M46.438,121.326H78.56l-22.695,22.695C51.14,137.39,47.847,129.677,46.438,121.326z M91.559,166.447
	c-8.35-1.408-16.064-4.701-22.695-9.426l22.695-22.695V166.447z M91.559,89.944L68.864,67.249
	c6.632-4.725,14.345-8.018,22.695-9.426V89.944z M155.064,102.942h-32.121l22.694-22.695
	C150.363,86.879,153.656,94.592,155.064,102.942z M109.943,57.823c8.35,1.409,16.062,4.701,22.694,9.426l-22.694,22.694V57.823z
	 M109.943,166.447v-32.121l22.694,22.695C126.005,161.746,118.293,165.039,109.943,166.447z M122.941,121.326h32.122
	c-1.409,8.35-4.701,16.064-9.427,22.696L122.941,121.326z"/>
<path d="M278.319,158.093h172.207l-35.04,271.108c-1.199,9.272-9.151,16.265-18.5,16.265h-15.718c-5.076,0-9.192,4.114-9.192,9.192
	s4.115,9.192,9.192,9.192h15.718c18.563,0,34.354-13.882,36.732-32.293l36.381-281.477c0.338-2.622-0.467-5.261-2.212-7.247
	c-1.745-1.984-4.26-3.123-6.904-3.123H278.319c-5.076,0-9.192,4.114-9.192,9.192C269.127,153.979,273.243,158.093,278.319,158.093z"
	/>
<path d="M180.77,194.154c-2.924,1.253-5.271,3.185-6.411,6.157c-10.899,28.44-2.785,63.327,20.743,89
	c2.999,3.272,6.184,6.29,9.498,9.088c0.135,0.124,0.276,0.241,0.418,0.358c10.879,8.865,23.527,15.684,37.315,19.071
	c6.94,1.705,14.093,2.553,21.24,2.451c6.45-0.092,15.54-0.174,21.169-3.764c0.429-0.273,0.869-0.581,1.23-0.941
	c4.742-4.346,5.519-13.502,6.269-19.514c0.87-6.983,0.878-14.072,0.061-21.062c-1.631-13.974-6.557-27.595-14.5-39.228
	c-11.555-16.924-26.889-30.962-46.31-38.228c-9.746-3.646-20.139-5.53-30.541-5.609C195.547,191.89,186.893,191.531,180.77,194.154z
	 M272.116,266.535c2.266,7.725,3.164,15.573,2.598,23.15l-6.108-6.665L272.116,266.535z M190.443,244.657
	c-2.08-7.44-2.881-14.979-2.337-22.269l18.574,20.267L190.443,244.657z M208.655,276.891c-4.199-4.581-7.786-9.506-10.747-14.631
	l24.024-2.96l17.869,19.499l-26.025,3.206C212.016,280.384,210.301,278.687,208.655,276.891z M238.387,297.494l16.665-2.053
	l6.052,6.603C253.441,301.919,245.769,300.352,238.387,297.494z M240.522,223.213c4.859,3.403,9.452,7.396,13.642,11.969
	c1.645,1.794,3.195,3.641,4.652,5.531l-5.464,25.662l-17.87-19.499L240.522,223.213z M223.63,214.274l-3.399,15.961l-18.517-20.206
	C209.101,210.15,216.496,211.609,223.63,214.274z"/>
<g>
</g>
<g>
</g>
<g>
</g>
<g>
</g>
<g>
</g>
<g>
</g>
<g>
</g>
<g>
</g>
<g>
</g>
<g>
</g>
<g>
</g>
<g>
</g>
<g>
</g>
<g>
</g>
<g>
</g>
</svg>
