<?xml version="1.0" encoding="iso-8859-1"?>
<!-- Generator: Adobe Illustrator 18.0.0, SVG Export Plug-In . SVG Version: 6.00 Build 0)  -->
<!DOCTYPE svg PUBLIC "-//W3C//DTD SVG 1.1//EN" "http://www.w3.org/Graphics/SVG/1.1/DTD/svg11.dtd">
<svg version="1.1" id="Capa_1" xmlns="http://www.w3.org/2000/svg" xmlns:xlink="http://www.w3.org/1999/xlink" x="0px" y="0px"
	 viewBox="0 0 53 53" style="enable-background:new 0 0 53 53;" xml:space="preserve">
<g>
	<path style="fill:#FFB24D;" d="M41,42h-3c-1.104,0-2-0.896-2-2s0.896-2,2-2h3c1.654,0,3-1.346,3-3V25c0-1.654-1.346-3-3-3h-3
		c-1.104,0-2-0.896-2-2s0.896-2,2-2h3c3.859,0,7,3.141,7,7v10C48,38.859,44.859,42,41,42z"/>
	<path style="fill:#F29C1F;" d="M39.544,42l-0.694-4c-0.887-5.283-1.463-10.145-0.679-16l0.455-4l0.334-3.157
		c-0.134,0.046-0.271,0.083-0.412,0.108c-0.997,0.18-1.912-0.144-2.568-0.746C35.872,15.764,34.587,17,33,17
		c-0.537,0-1.034-0.153-1.47-0.4c-0.355,0.56-0.897,0.977-1.53,1.205V21.5c0,0.825-0.675,1.5-1.5,1.5S27,22.325,27,21.5V20
		c0,1.1-0.9,2-2,2s-2-0.9-2-2v4c0,1.1-0.9,2-2,2s-2-0.9-2-2v-4.786C18.471,19.698,17.775,20,17,20c-1.311,0-2.414-0.846-2.822-2.018
		C14.118,17.986,14.061,18,14,18c-0.537,0-1.034-0.153-1.47-0.4c-0.207,0.327-0.489,0.594-0.802,0.82L12,21
		c1.428,9.042-0.418,15.605-1.845,24.646L9.309,51C21.754,53.667,28.556,53.667,41,51l-0.845-5.354
		C39.956,44.386,39.749,43.177,39.544,42z"/>
	<g>
		<path style="fill:#804537;" d="M40.155,45.646c-0.018-0.113-0.036-0.221-0.054-0.333c-11.353,2.249-18.539,2.249-29.891,0
			c-0.018,0.112-0.036,0.22-0.054,0.333L9.309,51C21.754,53.667,28.556,53.667,41,51L40.155,45.646z"/>
	</g>
	<path style="fill:#E6E7E8;" d="M42,8c0-0.928-0.43-1.747-1.092-2.297c0.185-0.766,0.166-1.608-0.792-2.655
		C39.572,2.454,38.836,2.009,38.031,2c-0.406-0.004-0.792,0.077-1.146,0.219C36.539,0.944,35.385,0,34,0
		c-1.067,0-1.998,0.561-2.53,1.4C31.034,1.153,30.537,1,30,1s-1.034,0.153-1.47,0.4C27.998,0.561,27.067,0,26,0
		s-1.998,0.561-2.53,1.4C23.034,1.153,22.537,1,22,1s-1.034,0.153-1.47,0.4C19.998,0.561,19.067,0,18,0
		c-0.395,0-0.77,0.078-1.114,0.219c-0.575,0.236-1.198,0.236-1.772,0C14.77,0.078,14.395,0,14,0c-1.657,0-3,1.343-3,3
		c0,0.065,0.015,0.126,0.019,0.19C10.7,3.074,10.36,3,10,3C8.343,3,7,4.343,7,6c0,0.537,0.153,1.034,0.4,1.47
		C6.561,8.002,6,8.933,6,10c0,0.243,0.037,0.477,0.092,0.703C5.43,11.253,5,12.072,5,13c0,1.311,0.846,2.414,2.018,2.822
		C7.014,15.882,7,15.939,7,16c0,1.657,1.343,3,3,3c1.067,0,1.998-0.561,2.53-1.4C12.966,17.847,13.463,18,14,18
		c0.061,0,0.118-0.014,0.178-0.018C14.586,19.154,15.689,20,17,20c0.775,0,1.471-0.302,2-0.786V24c0,1.1,0.9,2,2,2s2-0.9,2-2v-4
		c0,1.1,0.9,2,2,2s2-0.9,2-2v1.5c0,0.825,0.675,1.5,1.5,1.5s1.5-0.675,1.5-1.5v-3.695c0.632-0.228,1.175-0.645,1.53-1.205
		C31.966,16.847,32.463,17,33,17c1.587,0,2.872-1.236,2.979-2.796c0.656,0.602,1.571,0.926,2.568,0.746
		c1.148-0.208,2.091-1.121,2.368-2.255c0.196-0.805,0.036-1.547-0.315-2.166C41.439,9.998,42,9.067,42,8z"/>
	<circle style="fill:#F0C419;" cx="16" cy="40" r="1"/>
	<circle style="fill:#F0C419;" cx="18" cy="36" r="1"/>
	<circle style="fill:#F0C419;" cx="20" cy="42" r="1"/>
	<circle style="fill:#F0C419;" cx="34" cy="28" r="1"/>
	<circle style="fill:#F0C419;" cx="31" cy="31" r="1"/>
	<circle style="fill:#F0C419;" cx="17" cy="29" r="1"/>
	<circle style="fill:#F0C419;" cx="30" cy="42" r="1"/>
	<circle style="fill:#F0C419;" cx="34" cy="34" r="1"/>
</g>
<g>
</g>
<g>
</g>
<g>
</g>
<g>
</g>
<g>
</g>
<g>
</g>
<g>
</g>
<g>
</g>
<g>
</g>
<g>
</g>
<g>
</g>
<g>
</g>
<g>
</g>
<g>
</g>
<g>
</g>
</svg>
