<?xml version="1.0" encoding="iso-8859-1"?>
<!-- Generator: Adobe Illustrator 19.0.0, SVG Export Plug-In . SVG Version: 6.00 Build 0)  -->
<svg xmlns="http://www.w3.org/2000/svg" xmlns:xlink="http://www.w3.org/1999/xlink" version="1.1" id="Layer_1" x="0px" y="0px" viewBox="0 0 502 502" style="enable-background:new 0 0 502 502;" xml:space="preserve" width="512" height="512">
<g>
	<g>
		<path style="fill:#C1272D;" d="M279.187,10h-56.374c-5.482,0-9.926,4.444-9.926,9.926v2.818c0,5.482,4.444,9.926,9.926,9.926    h56.374c5.482,0,9.926-4.444,9.926-9.926v-2.818C289.113,14.444,284.669,10,279.187,10z"/>
		<path style="fill:#8CC63F;" d="M187.916,462.429c0,16.331,13.239,29.571,29.571,29.571h67.027    c16.331,0,29.571-13.239,29.571-29.571v-47.313H187.916V462.429z"/>
		<rect x="187.916" y="253.464" style="fill:#E6E6E6;" width="126.168" height="161.652"/>
		<g>
			<path style="fill:#8CC63F;" d="M218.314,167.212c-0.534,7.963-3.85,15.486-9.366,21.253     c-13.696,14.629-21.032,36.278-21.032,56.352v8.648h126.168v-8.648c0-19.94-7.432-41.901-21.032-56.352     c-5.517-5.767-8.832-13.289-9.366-21.253l-1.885-28.087h-61.602L218.314,167.212z"/>
			<polygon style="fill:#8CC63F;" points="274.657,32.671 227.344,32.671 224.83,70.127 277.17,70.127    "/>
			<polygon style="fill:#E6E6E6;" points="224.83,70.127 220.199,139.125 281.801,139.125 277.17,70.127    "/>
		</g>
	</g>
	<g>
		<path d="M216.173,284.863c-5.523,0-10,4.478-10,10v6.897c0,5.522,4.477,10,10,10s10-4.478,10-10v-6.897    C226.173,289.341,221.696,284.863,216.173,284.863z"/>
		<path d="M216.173,322.319c-5.523,0-10,4.478-10,10v55.198c0,5.522,4.477,10,10,10s10-4.478,10-10v-55.198    C226.173,326.797,221.696,322.319,216.173,322.319z"/>
		<path d="M177.916,462.43c0,21.819,17.751,39.57,39.57,39.57h67.027c21.819,0,39.57-17.751,39.57-39.57V244.816    c0-23.42-9.1-47.639-23.805-63.264c-3.889-4.066-6.239-9.397-6.615-15.011l-1.885-28.087l-4.631-68.998l-1.862-27.75    c8.012-2.583,13.828-10.104,13.828-18.963v-2.817C299.113,8.939,290.174,0,279.187,0h-56.374    c-10.987,0-19.926,8.939-19.926,19.927v2.817c0,8.86,5.816,16.38,13.828,18.963l-1.862,27.75l-4.631,68.998l-1.885,28.087    c-0.377,5.614-2.726,10.945-6.615,15.011c-0.024,0.025-0.049,0.052-0.073,0.077c-14.86,15.872-23.732,39.493-23.732,63.187V462.43    z M197.916,263.464h106.167v141.652H197.916V263.464z M266.477,60.127h-30.954l1.172-17.456h28.61L266.477,60.127z     M234.181,80.127h33.637l3.289,48.998h-40.214L234.181,80.127z M222.887,22.671V20h56.226v2.671H222.887z M216.215,195.334    c7.1-7.442,11.388-17.188,12.077-27.452l1.259-18.757h42.899l1.259,18.756c0.689,10.283,4.993,20.048,12.062,27.438    c11.021,11.712,17.97,30.051,18.301,48.146H197.929C198.261,225.447,205.203,207.118,216.215,195.334z M304.084,462.43    c0,10.791-8.779,19.57-19.57,19.57h-67.027c-10.791,0-19.57-8.779-19.57-19.57v-37.313h106.167V462.43z"/>
	</g>
</g>















</svg>
