<?xml version="1.0" encoding="iso-8859-1"?>
<!-- Generator: Adobe Illustrator 19.0.0, SVG Export Plug-In . SVG Version: 6.00 Build 0)  -->
<svg version="1.1" id="Capa_1" xmlns="http://www.w3.org/2000/svg" xmlns:xlink="http://www.w3.org/1999/xlink" x="0px" y="0px"
	 viewBox="0 0 512 512" style="enable-background:new 0 0 512 512;" xml:space="preserve">
<g>
	<path d="M219.552,157.643c-0.045-21.278-5.477-41.288-15.38-56.954V0H99.323v100.496c-9.992,15.759-15.425,35.93-15.38,57.41
		c0.014,6.299,0.504,12.523,1.462,18.599l-50.673,39.819V485h234.031V216.329l-50.635-39.832
		C219.087,170.336,219.565,164.025,219.552,157.643z M174.171,30v48.834h-44.849V30H174.171z M238.763,230.899V455H64.731V230.904
		l54.086-42.502l-2.333-9.412c-1.671-6.739-2.526-13.854-2.542-21.147c-0.035-16.9,4.53-32.92,12.526-43.951l2.854-3.938v-1.119
		h44.849v1.283l2.838,3.932c7.936,10.991,12.507,26.903,12.542,43.656c0.016,7.344-0.824,14.516-2.495,21.315l-2.307,9.391
		L238.763,230.899z"/>
	<path d="M94.731,425h114.031V268.615H94.731V425z M124.731,298.615h54.031V395h-54.031V298.615z"/>
	<path d="M308.327,295.615L320.209,485h118.178l11.882-189.385H308.327z M418.327,325.615l-1.882,30h-74.294l-1.882-30H418.327z
		 M348.386,455l-4.353-69.385h70.53L410.21,455H348.386z"/>
</g>
<g>
</g>
<g>
</g>
<g>
</g>
<g>
</g>
<g>
</g>
<g>
</g>
<g>
</g>
<g>
</g>
<g>
</g>
<g>
</g>
<g>
</g>
<g>
</g>
<g>
</g>
<g>
</g>
<g>
</g>
</svg>
