<?xml version="1.0" encoding="iso-8859-1"?>
<!-- Generator: Adobe Illustrator 19.0.0, SVG Export Plug-In . SVG Version: 6.00 Build 0)  -->
<svg version="1.1" id="Layer_1" xmlns="http://www.w3.org/2000/svg" xmlns:xlink="http://www.w3.org/1999/xlink" x="0px" y="0px"
	 viewBox="0 0 512 512" style="enable-background:new 0 0 512 512;" xml:space="preserve">
<circle style="fill:#006837;" cx="256" cy="256" r="245.801"/>
<circle style="fill:#738E00;" cx="256" cy="256" r="203.984"/>
<path d="M437.019,74.98C388.667,26.628,324.381,0,256,0S123.333,26.628,74.981,74.98C26.628,123.333,0,187.62,0,256
	s26.628,132.667,74.981,181.02C123.333,485.372,187.619,512,256,512s132.667-26.628,181.019-74.98
	C485.372,388.667,512,324.38,512,256S485.372,123.333,437.019,74.98z M256,491.602c-129.911,0-235.602-105.69-235.602-235.602
	S126.089,20.398,256,20.398S491.602,126.089,491.602,256S385.911,491.602,256,491.602z"/>
<path d="M256,41.817C137.899,41.817,41.817,137.899,41.817,256S137.899,470.183,256,470.183S470.183,374.101,470.183,256
	S374.101,41.817,256,41.817z M256,62.215c49.765,0,95.202,18.862,129.556,49.805L266.199,231.376V92.813
	c0-5.633-4.567-10.199-10.199-10.199c-5.632,0-10.199,4.566-10.199,10.199v138.563l-32.055-32.055
	c-3.984-3.983-10.44-3.983-14.425,0c-3.983,3.983-3.983,10.441,0,14.425l32.055,32.055H86.693c-5.632,0-10.199,4.566-10.199,10.199
	c0,5.633,4.567,10.199,10.199,10.199h144.683L112.02,385.556C81.078,351.202,62.215,305.765,62.215,256
	C62.215,149.146,149.146,62.215,256,62.215z M256,449.785c-49.765,0-95.202-18.862-129.556-49.805l119.357-119.356v138.563
	c0,5.633,4.567,10.199,10.199,10.199c5.632,0,10.199-4.566,10.199-10.199V280.624l32.055,32.055
	c1.992,1.992,4.602,2.987,7.212,2.987c2.61,0,5.22-0.995,7.212-2.987c3.983-3.983,3.983-10.441,0-14.425l-32.054-32.055h144.683
	c5.632,0,10.199-4.566,10.199-10.199s-4.567-10.199-10.199-10.199H280.624l119.357-119.357
	c30.941,34.354,49.804,79.791,49.804,129.556C449.785,362.854,362.854,449.785,256,449.785z"/>
<path d="M415.044,305.624c-5.264-2.006-11.157,0.637-13.161,5.901c-10.314,27.082-27.989,50.754-51.111,68.458
	c-4.472,3.424-5.323,9.826-1.898,14.298c2.008,2.623,5.039,3.999,8.105,3.999c2.163,0,4.344-0.685,6.193-2.102
	c26.132-20.007,46.11-46.769,57.773-77.394C422.95,313.521,420.309,307.629,415.044,305.624z"/>
<path d="M316.311,399.969c-5.911,2.479-12.037,4.611-18.209,6.336c-5.425,1.516-8.594,7.143-7.077,12.568
	c1.26,4.507,5.356,7.457,9.817,7.457c0.91,0,1.834-0.122,2.751-0.379c6.985-1.952,13.918-4.364,20.608-7.171
	c5.194-2.179,7.638-8.156,5.461-13.351C327.483,400.235,321.508,397.79,316.311,399.969z"/>
<g>
</g>
<g>
</g>
<g>
</g>
<g>
</g>
<g>
</g>
<g>
</g>
<g>
</g>
<g>
</g>
<g>
</g>
<g>
</g>
<g>
</g>
<g>
</g>
<g>
</g>
<g>
</g>
<g>
</g>
</svg>
