<?xml version="1.0" encoding="iso-8859-1"?>
<!-- Generator: Adobe Illustrator 19.0.0, SVG Export Plug-In . SVG Version: 6.00 Build 0)  -->
<svg version="1.1" id="Layer_1" xmlns="http://www.w3.org/2000/svg" xmlns:xlink="http://www.w3.org/1999/xlink" x="0px" y="0px"
	 viewBox="0 0 511.99 511.99" style="enable-background:new 0 0 511.99 511.99;" xml:space="preserve">
<g>
	<g>
		<path d="M431.987,330.744c-21.858,0-40.624,13.133-48.857,31.914h-79.14l21.343,149.332h85.327l18.281-127.997h56.39
			C485.331,354.58,461.44,330.744,431.987,330.744z M392.16,490.655h-48.327l-1.531-10.663h51.374L392.16,490.655z M396.722,458.656
			h-57.467l-6.094-42.664h69.655L396.722,458.656z M405.879,394.657h-75.765l-1.516-10.664h50.062h28.733L405.879,394.657z
			 M431.987,362.658h-23.78c5.859-6.492,14.359-10.586,23.78-10.586c9.438,0,17.922,4.094,23.781,10.586H431.987z"/>
	</g>
</g>
<g>
	<g>
		<path d="M239.983,170.661h-10.656l-31.999-21.328V0H90.658v149.333l-31.999,21.328H47.987c-11.781,0-21.328,9.554-21.328,21.335
			v63.999v191.997v42.663c0,11.781,9.546,21.335,21.328,21.335h191.997c11.781,0,21.344-9.554,21.344-21.335v-42.663V255.995
			v-63.999C261.327,180.215,251.765,170.661,239.983,170.661z M111.985,21.335h63.999v63.999h-63.999V21.335z M47.987,277.331H91.72
			c4.953,24.343,26.468,42.663,52.265,42.663c25.812,0,47.327-18.32,52.265-42.663h43.733v149.325H47.987V277.331z M111.985,266.659
			c0-17.64,14.359-32,32-32c17.64,0,31.999,14.359,31.999,32c0,17.648-14.359,31.999-31.999,31.999S111.985,284.307,111.985,266.659
			z M239.984,490.655L239.984,490.655h-21.329c0-5.891-4.781-10.663-10.672-10.663c-5.89,0-10.656,4.772-10.656,10.663h-21.344
			c0-5.891-4.766-10.663-10.672-10.663c-5.875,0-10.656,4.772-10.656,10.663h-21.328c0-5.891-4.781-10.663-10.672-10.663
			s-10.672,4.772-10.672,10.663H90.658c0-5.891-4.781-10.663-10.671-10.663s-10.656,4.772-10.656,10.663H47.987v-42.663h191.997
			V490.655z M239.986,255.995H196.25c-4.938-24.344-26.453-42.664-52.265-42.664c-25.797,0-47.312,18.32-52.265,42.664H47.987
			v-63.999h10.672h6.453l5.375-3.586l32-21.328l9.5-6.336v-11.414v-42.671h63.999v42.671v11.414l9.5,6.336l32,21.328l5.375,3.586
			h6.469h10.656V255.995z"/>
	</g>
</g>
<g>
	<g>
		<path d="M197.328,341.33H90.658c-5.89,0-10.671,4.773-10.671,10.664s4.78,10.664,10.671,10.664h106.67
			c5.891,0,10.656-4.773,10.656-10.664S203.219,341.33,197.328,341.33z"/>
	</g>
</g>
<g>
	<g>
		<path d="M165.328,383.993h-42.671c-5.891,0-10.672,4.773-10.672,10.664c0,5.89,4.781,10.671,10.672,10.671h42.671
			c5.891,0,10.656-4.781,10.656-10.671C175.984,388.766,171.219,383.993,165.328,383.993z"/>
	</g>
</g>
<g>
</g>
<g>
</g>
<g>
</g>
<g>
</g>
<g>
</g>
<g>
</g>
<g>
</g>
<g>
</g>
<g>
</g>
<g>
</g>
<g>
</g>
<g>
</g>
<g>
</g>
<g>
</g>
<g>
</g>
</svg>
