<?xml version="1.0" encoding="iso-8859-1"?>
<!-- Generator: Adobe Illustrator 19.0.0, SVG Export Plug-In . SVG Version: 6.00 Build 0)  -->
<svg version="1.1" id="Layer_1" xmlns="http://www.w3.org/2000/svg" xmlns:xlink="http://www.w3.org/1999/xlink" x="0px" y="0px"
	 viewBox="0 0 512.001 512.001" style="enable-background:new 0 0 512.001 512.001;" xml:space="preserve">
<g>
	<path style="fill:#E6E6E6;" d="M426.481,382.776c4.62,11.953-1.339,25.389-13.292,30.009c-11.965,4.607-25.401-1.339-30.021-13.304
		c-4.607-11.965,1.351-25.389,13.304-30.009C408.437,364.853,421.873,370.811,426.481,382.776z"/>
	<path style="fill:#E6E6E6;" d="M111.339,337.22c12.122,4.161,18.587,17.356,14.425,29.49c-4.161,12.122-17.368,18.575-29.49,14.413
		c-12.122-4.161-18.575-17.356-14.425-29.478C86.01,339.512,99.217,333.059,111.339,337.22z"/>
	<path style="fill:#E6E6E6;" d="M347.864,93.084l32.674,84.695l-1.544,0.603c-20.299,1.315-21.156-12.037-41.455-10.723
		c-20.287,1.303-19.419,14.655-39.718,15.969c-17.96,1.158-20.697-9.179-35.183-10.65h-0.012l-15.788-40.912L347.864,93.084z"/>
	<path style="fill:#E6E6E6;" d="M71.633,210.888c1.845-8.853,4.306-17.839,7.394-26.861c9.299-27.09,22.989-50.465,38.693-68.135
		l124.462,42.698c0.868,13.195,0.145,27.404-2.292,42.107l-3.136-0.531c-42.046,2.714-40.442,27.56-82.464,30.274
		c-40.997,2.654-43.554-20.915-82.645-19.552H71.633z"/>
</g>
<g>
	<path style="fill:#F7B239;" d="M427.494,299.48c2.473,6.405,3.643,12.99,3.643,19.467c0,21.735-13.171,42.239-34.665,50.525
		c-27.898,10.759-59.234-3.124-69.993-31.022l-63.853-165.471h0.012c14.486,1.471,17.224,11.808,35.183,10.65
		c20.299-1.315,19.431-14.667,39.718-15.969c20.299-1.315,21.156,12.037,41.455,10.723l1.544-0.603L427.494,299.48z"/>
	<path style="fill:#F7B239;" d="M236.754,200.166l3.136,0.531c-1.918,11.591-4.897,23.484-8.998,35.437
		c-24.099,70.21-77.615,115.476-119.553,101.087c-36.546-12.544-52.226-66.254-39.706-126.332h0.012
		c39.091-1.363,41.648,22.205,82.645,19.552C196.312,227.726,194.708,202.88,236.754,200.166z"/>
</g>
<g>
	<path style="fill:#2BA5F7;" d="M232.37,79.602c-4.996,0-9.046-4.05-9.046-9.046V9.046c0-4.996,4.05-9.046,9.046-9.046
		s9.046,4.05,9.046,9.046v61.51C241.416,75.552,237.366,79.602,232.37,79.602z"/>
	<path style="fill:#2BA5F7;" d="M188.236,97.883c-2.315,0-4.63-0.883-6.396-2.65l-21.747-21.747c-3.533-3.533-3.533-9.26,0-12.792
		c3.533-3.533,9.261-3.533,12.792,0l21.747,21.747c3.533,3.533,3.533,9.26,0,12.792C192.866,97.001,190.552,97.883,188.236,97.883z"
		/>
	<path style="fill:#2BA5F7;" d="M276.504,97.883c-2.315,0-4.63-0.883-6.396-2.65c-3.533-3.533-3.533-9.26,0-12.792l21.747-21.747
		c3.533-3.533,9.261-3.533,12.792,0c3.533,3.533,3.533,9.26,0,12.792L282.9,95.234C281.134,97.001,278.82,97.883,276.504,97.883z"/>
</g>
<path d="M482.899,475.683c-1.798-4.662-7.039-6.98-11.696-5.183l-22.677,8.751l-24.116-62.499
	c11.086-8.48,15.782-23.572,10.51-37.236c-2.581-6.692-7.209-12.206-13.23-15.881c5.418-5.426,9.858-11.848,13.058-19.069
	c6.838-15.43,7.257-32.598,1.182-48.345L356.299,89.834c-0.864-2.239-2.581-4.042-4.774-5.014s-4.683-1.032-6.921-0.169
	l-101.016,38.977c-4.662,1.798-6.982,7.035-5.183,11.696l5.517,14.298L120.654,107.33c-3.45-1.183-7.273-0.18-9.697,2.546
	c-17.1,19.236-31.098,43.863-40.483,71.22c-12.172,35.481-15.334,71.824-8.898,102.331c4.386,20.79,12.886,37.384,24.667,48.696
	c-6.039,3.906-10.575,9.673-12.946,16.581c-4.752,13.853,0.511,28.757,11.908,36.813l-21.738,63.366l-22.99-7.888
	c-4.729-1.621-9.871,0.896-11.492,5.621c-1.621,4.726,0.895,9.871,5.621,11.492l63.096,21.648c0.973,0.334,1.962,0.492,2.937,0.492
	c3.757,0,7.268-2.36,8.556-6.113c1.621-4.726-0.895-9.871-5.621-11.492l-22.992-7.888l21.741-63.371
	c0.504,0.024,1.01,0.063,1.514,0.063c4.845,0,9.666-1.106,14.146-3.296c7.74-3.786,13.543-10.358,16.338-18.508l0,0
	c2.37-6.908,2.33-14.245-0.039-21.033c16.243-1.697,33.144-9.58,49.366-23.299c23.808-20.132,43.624-50.759,55.797-86.241
	c8.009-23.345,12.131-47.18,12.123-69.63l66.471,172.27c6.075,15.745,17.918,28.183,33.348,35.02
	c7.226,3.202,14.831,4.992,22.495,5.371c-1.923,6.563-1.791,13.78,0.855,20.637c4.936,12.789,17.178,20.646,30.131,20.646
	c0.887,0,1.777-0.041,2.669-0.116l24.113,62.495l-22.678,8.751c-4.662,1.798-6.982,7.035-5.183,11.696
	c1.385,3.591,4.81,5.792,8.442,5.792c1.083,0,2.184-0.195,3.254-0.609l62.233-24.013
	C482.378,485.581,484.698,480.344,482.899,475.683z M120.598,126.438l112.834,38.711c0.232,8.554-0.23,17.376-1.347,26.334
	c-20.81,2.138-31.857,9.661-41.666,16.348c-9.749,6.646-18.169,12.385-36.714,13.584c-18.549,1.203-27.639-3.409-38.165-8.743
	c-8.578-4.348-18.089-9.151-32.538-10.503c1.336-5.063,2.85-10.138,4.587-15.201C95.472,163.984,106.828,143.185,120.598,126.438z
	 M117.206,363.768L117.206,363.768c-1.228,3.579-3.775,6.465-7.174,8.128c-3.399,1.662-7.24,1.902-10.82,0.674
	c-7.388-2.535-11.335-10.607-8.801-17.994c1.228-3.579,3.775-6.465,7.174-8.127c1.967-0.962,4.084-1.447,6.212-1.447
	c1.547,0,3.101,0.257,4.607,0.773c3.579,1.228,6.465,3.776,8.128,7.174S118.434,360.19,117.206,363.768z M171.965,311.493
	c-20.052,16.955-40.54,23.051-57.689,17.168c-17.149-5.884-29.578-23.274-34.999-48.967c-3.807-18.048-3.793-38.525-0.165-59.682
	c12.25,0.713,19.767,4.5,28.247,8.798c10.13,5.135,21.474,10.885,40.742,10.884c2.153,0,4.408-0.072,6.769-0.224
	c23.481-1.519,35.305-9.578,45.737-16.688c8.117-5.533,15.335-10.428,28.221-12.609c-1.709,7.667-3.873,15.367-6.499,23.024
	C211.202,265.633,193.315,293.439,171.965,311.493z M342.675,104.786l24.139,62.56c-1.335-0.633-2.645-1.376-4.076-2.19
	c-5.763-3.279-12.936-7.362-25.784-6.529c-12.843,0.83-19.426,5.799-24.716,9.793c-4.384,3.31-7.552,5.701-14.997,6.183
	c-7.438,0.482-10.884-1.481-15.658-4.197c-3.276-1.863-7.152-4.068-12.339-5.408l-10.706-27.746L342.675,104.786z M334.916,335.196
	l-56.304-145.924c4.218,1.923,9.409,3.494,16.494,3.494c1.058,0,2.159-0.035,3.304-0.109c12.853-0.831,19.438-5.803,24.73-9.796
	c4.382-3.307,7.548-5.698,14.983-6.178c7.45-0.481,10.894,1.482,15.668,4.199c4.968,2.827,10.994,6.243,20.793,6.6l44.469,115.251
	c4.336,11.236,4.036,23.49-0.844,34.501s-13.756,19.464-24.993,23.798c-11.238,4.336-23.49,4.037-34.502-0.843
	C347.704,355.309,339.252,346.432,334.916,335.196z M391.613,396.225c-2.812-7.286,0.83-15.503,8.116-18.314
	c1.656-0.639,3.381-0.958,5.103-0.958c1.95,0,3.897,0.409,5.734,1.222c3.459,1.533,6.114,4.322,7.476,7.851
	c2.811,7.286-0.83,15.503-8.116,18.314C402.641,407.152,394.425,403.511,391.613,396.225z"/>
<circle cx="360.818" cy="322.029" r="9.046"/>
<circle cx="384.338" cy="280.417" r="9.046"/>
<circle cx="340.917" cy="247.851" r="9.046"/>
<circle cx="149.152" cy="280.417" r="9.046"/>
<circle cx="109.349" cy="291.272" r="9.046"/>
<g>
	<path style="fill:#FFFFFF;" d="M367.835,230.963c-3.63,0-7.056-2.201-8.442-5.792l-35.866-92.962
		c-1.798-4.662,0.522-9.898,5.183-11.696c4.659-1.797,9.898,0.522,11.696,5.184l35.866,92.962c1.798,4.662-0.522,9.898-5.183,11.696
		C370.02,230.767,368.919,230.963,367.835,230.963z"/>
	<path style="fill:#FFFFFF;" d="M188.204,271.911c-1.576,0-3.173-0.413-4.626-1.28c-4.29-2.561-5.693-8.114-3.134-12.404
		c6.202-10.395,11.468-21.846,15.652-34.035c3.355-9.782,5.88-19.711,7.501-29.51c0.941-5.679,1.58-11.324,1.902-16.783
		c0.293-4.987,4.58-8.789,9.561-8.499c4.987,0.293,8.793,4.575,8.498,9.562c-0.358,6.091-1.069,12.375-2.112,18.676
		c-1.785,10.785-4.557,21.696-8.238,32.427c-4.589,13.371-10.386,25.966-17.229,37.433
		C194.288,270.337,191.285,271.911,188.204,271.911z"/>
</g>
<g>
</g>
<g>
</g>
<g>
</g>
<g>
</g>
<g>
</g>
<g>
</g>
<g>
</g>
<g>
</g>
<g>
</g>
<g>
</g>
<g>
</g>
<g>
</g>
<g>
</g>
<g>
</g>
<g>
</g>
</svg>
